Coordinates
version=1
nRows=17
nColumns=40
inDegrees=yes

Units are S.I. units (second, meters, Newtons, ...)
Angles are in degrees.

endheader
time	pelvis_tilt	pelvis_list	pelvis_rotation	pelvis_tx	pelvis_ty	pelvis_tz	hip_flexion_r	hip_adduction_r	hip_rotation_r	knee_angle_r	knee_angle_r_beta	ankle_angle_r	subtalar_angle_r	mtp_angle_r	hip_flexion_l	hip_adduction_l	hip_rotation_l	knee_angle_l	knee_angle_l_beta	ankle_angle_l	subtalar_angle_l	mtp_angle_l	lumbar_extension	lumbar_bending	lumbar_rotation	arm_flex_r	arm_add_r	arm_rot_r	elbow_flex_r	pro_sup_r	wrist_flex_r	wrist_dev_r	arm_flex_l	arm_add_l	arm_rot_l	elbow_flex_l	pro_sup_l	wrist_flex_l	wrist_dev_l
     13.03250000	     -5.00193867	     -3.59520437	      1.77869788	      1.07778973	      0.90768190	      0.45610235	     -1.06445236	     -3.06352990	    -12.27086385	     31.39030655	     31.39030655	     14.16390002	     -8.27012435	    -13.00659195	     32.33641865	     -5.14506795	     -1.91521606	     30.33853777	     30.33853777	      6.11540700	    -16.94144750	      6.70324234	     -7.73792825	      4.53208216	      4.06137485	     43.62284625	    -14.95523171	     -1.75148761	    117.77176015	     43.84928419	      0.00000000	      0.00000000	    -17.19467151	     -6.41015159	      8.43509636	     21.16910159	     43.99150630	      0.00000000	      0.00000000
     13.04371429	     -4.94294583	     -3.47785013	      1.53717746	      1.07832478	      0.90928862	      0.45383731	      0.55658048	     -3.64917798	    -11.47676791	     35.04780706	     35.04780706	     10.48298201	    -12.22895659	    -17.23636844	     31.53756831	     -4.98621882	     -2.10087184	     30.40443198	     30.40443198	      7.08337895	    -16.93529903	      6.94592147	     -7.77219191	      4.44823086	      4.21017313	     41.40594176	    -15.17295761	     -1.94998611	    118.36178712	     43.89973677	      0.00000000	      0.00000000	    -15.83087456	     -6.54632814	      8.87252878	     21.70513037	     44.05068890	      0.00000000	      0.00000000
     13.05492857	     -4.77804210	     -3.20776244	      1.30843010	      1.07876411	      0.91099497	      0.45149654	      2.35377264	     -4.64471062	    -11.27962658	     39.34598972	     39.34598972	      8.36223807	    -13.86138753	    -17.08669880	     30.53174425	     -4.69007076	     -2.47516763	     30.30674813	     30.30674813	      7.81046949	    -16.89367623	      6.61941446	     -7.89727645	      4.20776451	      3.82234825	     39.45089551	    -14.80146757	     -1.50342531	    117.87877878	     43.89799110	      0.00000000	      0.00000000	    -14.55031663	     -6.61356713	      8.91248113	     22.18595430	     44.07846123	      0.00000000	      0.00000000
     13.06614286	     -4.77414601	     -3.01502195	      1.06971522	      1.07887536	      0.91253152	      0.44938619	      4.50537059	     -5.41925144	    -10.80697770	     43.66571354	     43.66571354	      6.01458097	    -15.90925957	    -16.32027424	     29.62653023	     -4.47262203	     -2.83870103	     30.00264266	     30.00264266	      8.38901148	    -16.78462159	      6.31435792	     -7.84541409	      4.03978003	      3.51202904	     37.32649055	    -14.67674756	     -1.14737586	    117.22506671	     43.90578006	      0.00000000	      0.00000000	    -13.24545593	     -6.74333828	      8.92630985	     22.76881164	     44.11262309	      0.00000000	      0.00000000
     13.07735714	     -4.70153499	     -2.84275989	      0.84612856	      1.07888658	      0.91411832	      0.44738357	      6.62709060	     -6.14536304	    -10.40894654	     47.82902368	     47.82902368	      3.85236761	    -17.41277226	    -14.92495805	     28.63534179	     -4.28134465	     -3.22171969	     29.65656710	     29.65656710	      8.94714378	    -16.59440854	      5.95157386	     -7.89013484	      3.87164777	      3.24316473	     35.07699254	    -14.58560764	     -0.81719432	    116.37710740	     43.91999350	      0.00000000	      0.00000000	    -11.80577814	     -6.93399342	      8.91741984	     23.43675310	     44.15218264	      0.00000000	      0.00000000
     13.08857143	     -4.61439912	     -2.77692101	      0.64435866	      1.07868455	      0.91567167	      0.44561337	      9.05401612	     -6.54061221	     -9.74509339	     52.39660129	     52.39660129	      4.34650574	    -17.42816955	     -5.86032604	     27.63167561	     -4.23745044	     -3.68049665	     29.23912188	     29.23912188	      9.05977975	    -16.39917635	      4.65457417	     -7.95589418	      3.87469227	      3.14455149	     32.67003978	    -14.54946601	     -0.97314093	    115.26895539	     44.01002017	      0.00000000	      0.00000000	    -10.27604036	     -7.25945677	      9.10893850	     24.50363325	     44.23396278	      0.00000000	      0.00000000
     13.09978571	     -4.49652405	     -2.57278471	      0.43371344	      1.07843950	      0.91721870	      0.44375594	     11.12405973	     -7.26910867	     -9.49785852	     55.97726844	     55.97726844	      2.53830523	    -18.12919745	     -4.97676492	     26.57598602	     -4.02787644	     -4.16235232	     28.81799062	     28.81799062	      9.54749451	    -16.06164340	      4.38669588	     -8.07595096	      3.73891841	      2.80430190	     30.32767730	    -14.40663673	     -0.48212201	    114.03917267	     44.02853749	      0.00000000	      0.00000000	     -8.66434476	     -7.55085690	      9.07898593	     25.11679269	     44.27718906	      0.00000000	      0.00000000
     13.11100000	     -4.36427355	     -2.41130311	      0.27540330	      1.07803655	      0.91873795	      0.44197816	     13.18366809	     -7.83984061	     -9.17837590	     59.25409003	     59.25409003	      1.18761754	    -18.50110495	     -3.73573014	     25.52217709	     -3.84857062	     -4.61350859	     28.38176836	     28.38176836	      9.96243056	    -15.63409132	      4.07725624	     -8.17875271	      3.63208243	      2.54786103	     27.91727527	    -14.34437946	     -0.07109482	    112.43258486	     44.06059012	      0.00000000	      0.00000000	     -6.89809914	     -7.87206218	      9.02605984	     25.80252511	     44.32484889	      0.00000000	      0.00000000
     13.12221429	     -4.27770612	     -2.46844890	      0.04430039	      1.07752082	      0.92018498	      0.44069155	     15.53827949	     -7.81978502	     -8.48147942	     62.63096197	     62.63096197	      2.42221462	    -18.10456951	      4.47061980	     24.47979828	     -3.98714181	     -5.18873097	     27.84341460	     27.84341460	     10.04679598	    -15.09296361	      2.56740304	     -8.18839427	      3.72883643	      2.19811740	     25.95089979	    -14.12175261	     -0.17729445	    109.07219544	     44.21144023	      0.00000000	      0.00000000	     -5.21327076	     -8.20848184	      9.15398925	     26.33085238	     44.41201047	      0.00000000	      0.00000000
     13.13342857	     -4.15180255	     -2.40232619	     -0.14798915	      1.07698696	      0.92171207	      0.43923107	     17.48836565	     -8.08158918	     -8.11496684	     65.04528367	     65.04528367	      1.60847567	    -18.12761625	      4.79129759	     23.39687864	     -3.92286090	     -5.65402869	     27.31264803	     27.31264803	     10.44377282	    -14.58517659	      2.25764581	     -8.31479678	      3.73650674	      2.10313377	     23.56846651	    -14.44284756	      0.21424236	    106.96374027	     44.26698938	      0.00000000	      0.00000000	     -3.27312990	     -8.58647256	      9.06663606	     27.07925496	     44.47712597	      0.00000000	      0.00000000
     13.14464286	     -4.02034900	     -2.37358917	     -0.35174381	      1.07646504	      0.92323424	      0.43795094	     19.36231323	     -8.18364955	     -7.70123476	     67.02938469	     67.02938469	      1.02862541	    -18.02597816	      4.80132590	     22.30827198	     -3.90147893	     -6.11916305	     26.78038970	     26.78038970	     10.84478091	    -14.08189494	      2.00828523	     -8.45317744	      3.79940896	      1.88536610	     21.13717262	    -14.37892962	      0.62074183	    104.85594796	     44.31545777	      0.00000000	      0.00000000	     -1.41105148	     -8.98520760	      8.98616733	     27.69973059	     44.52935001	      0.00000000	      0.00000000
     13.15585714	     -3.82893156	     -2.45887960	     -0.56537632	      1.07593534	      0.92480958	      0.43683277	     21.08246980	     -8.09109325	     -7.32370295	     68.56816533	     68.56816533	      0.75749037	    -17.66971117	      4.67184190	     21.14329492	     -4.04229583	     -6.67921164	     26.22992151	     26.22992151	     11.19885465	    -13.31472801	      1.32187581	     -8.56416796	      3.93378806	      1.79566082	     19.34643697	    -14.44347632	      0.47638413	    100.67737400	     44.46072200	      0.00000000	      0.00000000	      0.73718834	     -9.31627442	      9.01532322	     27.92778334	     44.59056388	      0.00000000	      0.00000000
     13.16707143	     -3.70858092	     -2.45242916	     -0.79323123	      1.07537855	      0.92629725	      0.43576659	     22.82037525	     -8.06817869	     -6.93235788	     69.70100108	     69.70100108	      0.56655727	    -17.14322456	      4.16013490	     19.99339615	     -4.02955741	     -7.15987085	     25.55030616	     25.55030616	     11.52010705	    -12.76194343	      0.97439005	     -8.65566800	      4.00552705	      1.75658955	     17.26094546	    -14.65718224	      0.71329629	     97.54934198	     44.55176801	      0.00000000	      0.00000000	      2.80788301	     -9.71428104	      8.96406100	     28.38059292	     44.64855329	      0.00000000	      0.00000000
     13.17828571	     -3.50113736	     -2.56749242	     -1.00122453	      1.07495951	      0.92784809	      0.43488313	     24.28372515	     -7.89288206	     -6.66214089	     70.28828545	     70.28828545	      0.31632095	    -16.59693974	      2.98461078	     18.77947036	     -4.16235023	     -7.63411804	     24.93630252	     24.93630252	     11.78114225	    -12.16855208	      0.28068875	     -8.74962661	      4.20931981	      1.39936319	     15.78053457	    -14.27553803	      0.74016794	     92.87627005	     44.70882773	      0.00000000	      0.00000000	      4.93138828	    -10.07803164	      9.07055969	     28.16377388	     44.70382937	      0.00000000	      0.00000000
     13.18950000	     -3.34186684	     -2.60952469	     -1.22511533	      1.07450897	      0.92926882	      0.43408165	     25.71696435	     -7.79731841	     -6.40212368	     70.46296505	     70.46296505	      0.03136438	    -16.01917427	      1.46640898	     17.55077874	     -4.16976152	     -8.03705084	     24.17868174	     24.17868174	     11.96330466	    -11.75338413	     -0.31678905	     -8.82267343	      4.32215146	      1.15806095	     14.28122052	    -14.22302902	      1.05651024	     88.58727665	     44.84779290	      0.00000000	      0.00000000	      7.05425472	    -10.50684219	      9.10782073	     28.14078263	     44.78341144	      0.00000000	      0.00000000
     13.20071429	     -3.14265692	     -2.67097365	     -1.46991560	      1.07413646	      0.93065397	      0.43341428	     27.01714480	     -7.67797507	     -6.17779396	     70.26701753	     70.26701753	      0.08599701	    -15.26909831	      0.90141560	     16.27372491	     -4.19134796	     -8.42821634	     23.43616926	     23.43616926	     12.29348560	    -11.32544625	     -0.49003443	     -9.01077266	      4.45807428	      1.44834566	     12.26215725	    -14.70822733	      1.24322096	     85.34422424	     44.94193582	      0.00000000	      0.00000000	      9.23298165	    -10.84295909	      9.03487581	     28.80977060	     44.84329033	      0.00000000	      0.00000000
     13.21192857	     -2.92859442	     -2.74612226	     -1.71436455	      1.07381603	      0.93196014	      0.43290373	     28.16139893	     -7.51610032	     -5.96737767	     69.62842793	     69.62842793	      0.09782367	    -14.62137452	      0.37952992	     14.97030475	     -4.21903830	     -8.79883538	     22.67943769	     22.67943769	     12.61940079	    -10.87179100	     -0.74193971	     -9.17542419	      4.62451310	      1.64513634	     10.57298097	    -14.92767284	      1.24627529	     81.32339054	     45.06800451	      0.00000000	      0.00000000	     11.43804529	    -11.17478486	      9.05047877	     29.21274132	     44.89067397	      0.00000000	      0.00000000
